<?xml version="1.0" standalone="no"?>
<!DOCTYPE svg PUBLIC "-//W3C//DTD SVG 20010904//EN"
 "http://www.w3.org/TR/2001/REC-SVG-20010904/DTD/svg10.dtd">
<svg version="1.0" xmlns="http://www.w3.org/2000/svg"
 width="288.000000pt" height="178.000000pt" viewBox="0 0 288.000000 178.000000"
 preserveAspectRatio="xMidYMid meet">
<metadata>
Created by potrace 1.10, written by Peter Selinger 2001-2011
</metadata>
<g transform="translate(0.000000,178.000000) scale(0.100000,-0.100000)"
fill="#000000" stroke="none">
<path d="M1493 1022 c-8 -5 -12 -42 -11 -113 1 -99 2 -106 19 -102 17 5 19 17
19 114 0 107 -3 117 -27 101z"/>
<path d="M2030 1021 c-8 -6 -10 -11 -5 -11 6 0 5 -4 -2 -8 -8 -5 -12 -48 -14
-132 l-1 -125 166 -3 166 -2 0 125 c0 111 -2 128 -20 147 -16 18 -26 20 -67
13 -58 -9 -92 -9 -158 0 -29 3 -56 2 -65 -4z m43 -241 c51 0 87 -9 87 -21 0
-5 -31 -9 -70 -9 l-70 0 2 123 2 122 3 -107 4 -108 42 0z m217 119 l0 -87 -47
-6 c-27 -4 -57 -6 -68 -6 -11 0 -41 2 -67 6 l-48 6 0 87 0 88 115 0 115 0 0
-88z m36 -136 c-4 -9 -27 -13 -78 -13 -90 0 -81 21 12 28 l60 4 2 107 2 106 3
-109 c2 -61 1 -116 -1 -123z"/>
<path d="M1676 1003 c-4 -9 -2 -21 3 -26 15 -15 41 0 41 23 0 25 -35 28 -44 3z"/>
<path d="M565 1003 c-19 -4 -21 -12 -23 -104 -3 -92 -1 -100 15 -97 16 3 18
13 14 78 -3 77 6 86 24 22 7 -26 17 -38 31 -40 18 -3 24 5 35 45 l14 48 3 -77
c3 -72 5 -78 24 -78 19 0 20 4 14 46 -3 26 -6 73 -6 105 0 52 -2 59 -19 59
-15 0 -24 -13 -37 -55 -10 -30 -21 -55 -25 -55 -3 0 -12 21 -19 48 -15 55 -18
59 -45 55z"/>
<path d="M896 1002 c-3 -5 -5 -52 -5 -105 0 -91 1 -97 20 -97 19 0 20 4 13 70
-3 39 -4 70 -1 70 2 0 23 -31 46 -70 56 -94 69 -87 73 37 2 52 1 96 0 98 -2 2
-10 1 -18 -2 -10 -4 -14 -24 -14 -72 l0 -66 -43 72 c-39 68 -58 85 -71 65z"/>
<path d="M1578 1002 c-16 -3 -18 -16 -18 -103 l0 -100 47 3 c38 2 49 7 51 22
4 16 0 18 -27 13 l-30 -6 -3 87 c-3 77 -5 87 -20 84z"/>
<path d="M1870 961 c0 -11 -6 -22 -12 -25 -10 -5 -10 -7 0 -12 7 -3 12 -25 12
-54 0 -54 20 -76 52 -59 24 13 23 29 -2 29 -17 0 -20 7 -20 40 0 33 3 40 20
40 12 0 20 7 20 16 0 10 -6 14 -15 10 -10 -4 -15 1 -15 14 0 13 -7 20 -20 20
-13 0 -20 -7 -20 -19z"/>
<path d="M740 942 c0 -5 11 -35 24 -68 22 -53 23 -61 10 -87 -8 -15 -12 -32
-9 -37 9 -15 35 -12 35 4 0 12 40 121 67 184 3 7 -3 12 -15 12 -16 0 -24 -11
-35 -47 l-14 -48 -14 48 c-9 33 -18 47 -31 47 -10 0 -18 -4 -18 -8z"/>
<path d="M1095 926 c-40 -60 -4 -140 52 -120 20 7 32 21 42 51 13 37 13 44 -2
67 -23 35 -70 36 -92 2z m64 -28 c14 -39 -11 -77 -36 -56 -14 11 -18 60 -6 71
13 14 34 6 42 -15z"/>
<path d="M1210 943 c1 -23 37 -134 43 -134 4 1 15 1 25 1 12 0 23 18 38 71
l22 70 -22 -3 c-17 -2 -22 -13 -29 -56 -10 -63 -22 -60 -31 8 -5 41 -10 50
-26 50 -11 0 -20 -3 -20 -7z"/>
<path d="M1371 936 c-7 -8 -16 -28 -21 -46 -19 -65 33 -110 86 -75 30 20 19
44 -12 27 -23 -12 -44 -5 -44 14 0 9 11 14 34 14 39 0 55 25 36 60 -13 24 -61
27 -79 6z m52 -31 c1 -5 -11 -12 -27 -13 -27 -3 -28 -2 -16 13 14 17 40 17 43
0z"/>
<path d="M1680 875 c0 -62 2 -73 15 -69 11 5 15 21 15 59 0 29 3 60 6 69 4 12
0 16 -15 16 -19 0 -21 -5 -21 -75z"/>
<path d="M1756 934 c-25 -24 -19 -43 20 -66 22 -13 32 -24 26 -30 -6 -6 -17
-6 -30 1 -15 8 -23 7 -32 -4 -18 -22 31 -42 65 -27 38 17 35 65 -5 82 -37 16
-39 33 -3 28 20 -2 29 2 31 15 3 13 -3 17 -27 17 -16 0 -37 -7 -45 -16z"/>
</g>
</svg>
